<?xml version="1.0" standalone="no"?>
<!DOCTYPE svg PUBLIC "-//W3C//DTD SVG 20010904//EN"
 "http://www.w3.org/TR/2001/REC-SVG-20010904/DTD/svg10.dtd">
<svg version="1.0" xmlns="http://www.w3.org/2000/svg"
 width="5000.000000pt" height="4000.000000pt" viewBox="0 0 5000.000000 4000.000000"
 preserveAspectRatio="xMidYMid meet">

<g transform="translate(0.000000,4000.000000) scale(0.100000,-0.100000)"
fill="#000000" stroke="none">
<path d="M24953 29343 c-23 -49 -283 -578 -578 -1178 -296 -599 -592 -1202
-660 -1340 -67 -137 -884 -1798 -1815 -3690 -931 -1892 -1761 -3579 -1845
-3750 -84 -170 -358 -728 -610 -1240 -252 -511 -526 -1069 -610 -1240 -84
-170 -635 -1291 -1225 -2490 -1844 -3747 -1890 -3841 -1890 -3849 0 -3 721 -6
1603 -6 l1602 0 24 36 c28 40 328 328 501 480 808 709 1743 1256 2763 1618
591 210 1305 368 1937 430 555 55 1149 55 1700 0 1729 -171 3381 -891 4700
-2048 173 -152 473 -440 501 -480 l24 -36 1603 0 c881 0 1602 3 1602 6 0 8
-46 102 -1890 3849 -590 1199 -1141 2320 -1225 2490 -84 171 -358 729 -610
1240 -252 512 -526 1070 -610 1240 -84 171 -914 1858 -1845 3750 -931 1892
-1748 3553 -1815 3690 -68 138 -364 741 -660 1340 -295 600 -555 1129 -578
1178 -23 48 -44 87 -47 87 -3 0 -24 -39 -47 -87z m670 -2885 c339 -689 713
-1451 833 -1693 215 -437 639 -1299 949 -1930 89 -181 366 -744 615 -1250 249
-506 521 -1059 605 -1230 162 -330 334 -679 1540 -3130 422 -858 836 -1699
920 -1870 84 -170 360 -733 615 -1250 254 -517 527 -1070 605 -1230 79 -159
220 -447 315 -640 95 -192 235 -477 311 -632 l138 -283 -782 0 -782 0 -885
1818 c-486 999 -947 1945 -1023 2102 -264 541 -1460 2995 -1557 3195 -53 110
-395 812 -760 1560 -364 748 -706 1450 -760 1560 -303 625 -623 1280 -626
1283 -1 2 -14 -20 -27 -50 -14 -29 -106 -223 -206 -432 l-181 -379 204 -416
c112 -229 592 -1208 1066 -2176 474 -968 911 -1859 970 -1980 59 -121 277
-566 485 -990 208 -423 426 -869 485 -990 59 -121 394 -805 745 -1520 759
-1547 788 -1608 772 -1598 -7 4 -85 56 -173 114 -949 631 -2074 1095 -3194
1319 -876 175 -1798 225 -2685 144 -1936 -175 -3736 -949 -5200 -2235 -77 -68
-187 -169 -245 -226 l-105 -103 -837 0 -837 0 138 283 c76 155 216 440 311
632 95 193 236 481 315 640 78 160 351 713 605 1230 255 517 531 1080 615
1250 84 171 498 1012 920 1870 1206 2451 1378 2800 1540 3130 84 171 356 724
605 1230 249 506 526 1069 615 1250 310 631 734 1493 949 1930 120 242 494
1004 833 1693 339 688 619 1252 623 1252 4 0 284 -564 623 -1252z"/>
<path d="M24625 23912 c-203 -416 -451 -923 -551 -1127 -455 -928 -2869 -5856
-2974 -6070 -65 -132 -283 -577 -485 -990 -202 -412 -418 -853 -480 -980 -62
-126 -178 -365 -259 -529 -80 -165 -144 -301 -142 -303 2 -2 421 147 932 330
511 184 1012 362 1114 395 1825 598 3841 671 5716 208 186 -46 585 -159 688
-195 33 -12 60 -20 62 -19 3 4 -436 901 -446 912 -11 11 -320 85 -570 136
-474 96 -960 161 -1485 201 -233 17 -1020 23 -1283 10 -1070 -55 -2033 -237
-3039 -575 -106 -35 -193 -62 -193 -59 0 2 943 1923 2095 4267 1152 2344 2095
4269 2095 4276 0 16 -412 869 -420 869 -3 0 -171 -341 -375 -757z"/>
</g>
</svg>
